
<svg xmlns="http://www.w3.org/2000/svg" viewBox="0 0 32 32" width="32" height="32">
  <!-- Primeira linha -->
  <polygon points="8,4 12,4 10,6 6,6" fill="#222222">
    <animate attributeName="opacity" values="0.7;1;0.7" dur="3s" repeatCount="indefinite" />
  </polygon>
  <polygon points="12,4 16,4 14,6 10,6" fill="#FFFFFF" stroke="#222222" stroke-width="0.5">
    <animate attributeName="opacity" values="0.8;1;0.8" dur="3s" begin="0.3s" repeatCount="indefinite" />
  </polygon>
  <polygon points="16,4 20,4 18,6 14,6" fill="#FFFFFF" stroke="#222222" stroke-width="0.5">
    <animate attributeName="opacity" values="0.8;1;0.8" dur="3s" begin="0.6s" repeatCount="indefinite" />
  </polygon>
  
  <!-- Segunda linha -->
  <polygon points="6,6 10,6 8,8 4,8" fill="#222222">
    <animate attributeName="opacity" values="0.7;1;0.7" dur="3s" begin="0.9s" repeatCount="indefinite" />
  </polygon>
  <polygon points="10,6 14,6 12,8 8,8" fill="#222222">
    <animate attributeName="opacity" values="0.7;1;0.7" dur="3s" begin="1.2s" repeatCount="indefinite" />
  </polygon>
  <polygon points="14,6 18,6 16,8 12,8" fill="#FFFFFF" stroke="#222222" stroke-width="0.5">
    <animate attributeName="opacity" values="0.8;1;0.8" dur="3s" begin="1.5s" repeatCount="indefinite" />
  </polygon>
  
  <!-- Terceira linha -->
  <polygon points="4,8 8,8 6,10 2,10" fill="#222222">
    <animate attributeName="opacity" values="0.7;1;0.7" dur="3s" begin="1.8s" repeatCount="indefinite" />
  </polygon>
  <polygon points="8,8 12,8 10,10 6,10" fill="#FFFFFF" stroke="#222222" stroke-width="0.5">
    <animate attributeName="opacity" values="0.8;1;0.8" dur="3s" begin="2.1s" repeatCount="indefinite" />
  </polygon>
  <polygon points="12,8 16,8 14,10 10,10" fill="#FFFFFF" stroke="#222222" stroke-width="0.5">
    <animate attributeName="opacity" values="0.8;1;0.8" dur="3s" begin="2.4s" repeatCount="indefinite" />
  </polygon>
</svg>
