
<svg width="400" height="200" xmlns="http://www.w3.org/2000/svg">
  <!-- Triângulos -->
  <g>
    <!-- Primeira linha -->
    <polygon points="30,30 60,30 45,60" fill="#333333" />
    <polygon points="60,30 90,30 75,60" fill="#FFFFFF" stroke="#333333" stroke-width="1" />
    <polygon points="90,30 120,30 105,60" fill="#FFFFFF" stroke="#333333" stroke-width="1" />
    
    <!-- Segunda linha -->
    <polygon points="15,60 45,60 30,90" fill="#333333" />
    <polygon points="45,60 75,60 60,90" fill="#333333" />
    <polygon points="75,60 105,60 90,90" fill="#FFFFFF" stroke="#333333" stroke-width="1" />
    
    <!-- Terceira linha -->
    <polygon points="0,90 30,90 15,120" fill="#333333" />
    <polygon points="30,90 60,90 45,120" fill="#FFFFFF" stroke="#333333" stroke-width="1" />
    <polygon points="60,90 90,90 75,120" fill="#FFFFFF" stroke="#333333" stroke-width="1" />
  </g>
  
  <!-- Texto -->
  <text x="140" y="80" font-family="Arial" font-weight="bold" font-size="24" fill="#555555">ADVOGADOS</text>
  <text x="140" y="110" font-family="Arial" font-weight="bold" font-size="24" fill="#555555">ASSOCIADOS</text>
</svg>
