
<svg width="400" height="200" xmlns="http://www.w3.org/2000/svg">
  <!-- Triangular logo pattern with gradient effect -->
  <defs>
    <linearGradient id="blueGradient" x1="0%" y1="0%" x2="100%" y2="100%">
      <stop offset="0%" stop-color="#2563EB" />
      <stop offset="100%" stop-color="#1E40AF" />
    </linearGradient>
    <filter id="shadow" x="-20%" y="-20%" width="140%" height="140%">
      <feDropShadow dx="2" dy="2" stdDeviation="3" flood-opacity="0.3" flood-color="#000" />
    </filter>
  </defs>
  
  <g filter="url(#shadow)">
    <!-- First column -->
    <polygon points="20,40 60,40 40,80" fill="#2563EB" />
    <polygon points="20,80 60,80 40,120" fill="#1E40AF" />
    <polygon points="20,120 60,120 40,160" fill="#2563EB" />
    
    <!-- Second column -->
    <polygon points="60,40 100,40 80,80" fill="#FFFFFF" stroke="#2563EB" stroke-width="1" />
    <polygon points="60,80 100,80 80,120" fill="#3B82F6" />
    <polygon points="60,120 100,120 80,160" fill="#FFFFFF" stroke="#2563EB" stroke-width="1" />
    
    <!-- Third column -->
    <polygon points="100,40 140,40 120,80" fill="#FFFFFF" stroke="#2563EB" stroke-width="1" />
    <polygon points="100,80 140,80 120,120" fill="#FFFFFF" stroke="#2563EB" stroke-width="1" />
    <polygon points="100,120 140,120 120,160" fill="#EFF6FF" stroke="#2563EB" stroke-width="1" />
  </g>
  
  <!-- Advogados Associados Text -->
  <text x="160" y="110" font-family="Arial" font-weight="bold" font-size="28" fill="url(#blueGradient)">ADVOGADOS ASSOCIADOS</text>
</svg>
